<svg clip-rule="evenodd" fill-rule="evenodd" height="302" image-rendering="optimizeQuality" shape-rendering="geometricPrecision" text-rendering="geometricPrecision" width="302" xmlns="http://www.w3.org/2000/svg"><path d="m146.5-.5h4v5 6 6 6 6 6 6 6 6 6 6 6 6 6 6 5 7 6 6 5 32c-.333 0-.667 0-1 0-34.442-39.229-69.1082-78.2289-104-117 33.5935-11.1978 67.26-22.1978 101-33z" fill="#fe00fe" opacity=".99"/><path d="m150.5-.5h17c63.087 9.91333 105.587 44.9133 127.5 105 2.765 9.673 4.931 19.339 6.5 29v34c-10.413 64.253-46.413 107.086-108 128.5-8.737 2.179-17.403 4.012-26 5.5-5.667 0-11.333 0-17 0 0-1.667 0-3.333 0-5 64.045-3.262 109.212-33.928 135.5-92 19.879-57.603 9.879-109.2696-30-155-29.114-28.7977-64.281-43.79768-105.5-45 0-1.66667 0-3.33333 0-5z" fill="#fc2cfc" opacity=".911"/><path d="m150.5 4.5c41.219 1.20232 76.386 16.2023 105.5 45 39.879 45.7304 49.879 97.397 30 155-26.288 58.072-71.455 88.738-135.5 92 0-2 0-4 0-6 58.619-2.544 101.119-29.877 127.5-82 21.493-53.253 14.826-102.587-20-148-28.392-32.4434-64.225-49.11-107.5-50 0-2 0-4 0-6z" fill="#f62af6"/><path d="m150.5 10.5c43.275.89 79.108 17.5566 107.5 50 34.826 45.413 41.493 94.747 20 148-26.381 52.123-68.881 79.456-127.5 82 0-2 0-4 0-6 57.49-2.316 98.657-29.316 123.5-81 19.184-50.72 12.184-97.387-21-140-27.199-30.6803-61.366-46.347-102.5-47 0-2 0-4 0-6z" fill="#f027f0"/><path d="m150.5 16.5c41.134.653 75.301 16.3197 102.5 47 33.184 42.613 40.184 89.28 21 140-24.843 51.684-66.01 78.684-123.5 81 0-2 0-4 0-6 55.349-2.081 94.849-28.081 118.5-78 18.1-48.728 11.1-93.395-21-134-26.008-28.9183-58.508-43.585-97.5-44 0-2 0-4 0-6z" fill="#ea25ea"/><path d="m150.5 22.5c38.992.415 71.492 15.0817 97.5 44 32.1 40.605 39.1 85.272 21 134-23.651 49.919-63.151 75.919-118.5 78 0-2 0-4 0-6 61.485-3.804 100.985-35.138 118.5-94 9.59-51.579-5.91-93.7456-46.5-126.5-21.628-14.9312-45.628-22.7645-72-23.5 0-2 0-4 0-6z" fill="#e423e4"/><path d="m150.5 28.5c26.372.7355 50.372 8.5688 72 23.5 40.59 32.7544 56.09 74.921 46.5 126.5-17.515 58.862-57.015 90.196-118.5 94 0-2 0-4 0-6 50.458-2.459 86.292-26.459 107.5-72 16.604-47.062 8.27-89.062-25-126-22.917-22.2013-50.417-33.5347-82.5-34 0-2 0-4 0-6z" fill="#dd21dd"/><path d="m45.5 32.5c34.8918 38.7711 69.558 77.771 104 117-1.333 0-2.667 0-4 0-48.6886-5.836-97.3553-11.836-146-18 0-.667 0-1.333 0-2 15.0604-32.4545 30.3937-64.7878 46-97z" fill="#d41dd4" opacity=".995"/><path d="m150.5 34.5c32.083.4653 59.583 11.7987 82.5 34 33.27 36.938 41.604 78.938 25 126-21.208 45.541-57.042 69.541-107.5 72 0-2 0-4 0-6 48.247-2.199 82.414-25.199 102.5-69 16.841-51.483 4.674-94.6493-36.5-129.5-19.648-14.2712-41.648-21.4379-66-21.5 0-2 0-4 0-6z" fill="#d71ed7"/><path d="m150.5 40.5c24.352.0621 46.352 7.2288 66 21.5 41.174 34.8507 53.341 78.017 36.5 129.5-20.086 43.801-54.253 66.801-102.5 69 0-2 0-4 0-6 43.208-1.062 74.708-20.729 94.5-59 19.166-48.18 10-90.013-27.5-125.5-19.436-15.8687-41.769-23.702-67-23.5 0-2 0-4 0-6z" fill="#d11cd1"/><path d="m150.5 46.5c25.231-.202 47.564 7.6313 67 23.5 37.5 35.487 46.666 77.32 27.5 125.5-19.792 38.271-51.292 57.938-94.5 59 0-2 0-4 0-6 49.896-3.407 81.73-29.074 95.5-77 7.661-49.175-10.172-85.6751-53.5-109.5-13.351-6.0041-27.351-9.1708-42-9.5 0-2 0-4 0-6z" fill="#cb1acb"/><path d="m150.5 52.5c14.649.3292 28.649 3.4959 42 9.5 43.328 23.8249 61.161 60.325 53.5 109.5-13.77 47.926-45.604 73.593-95.5 77 0-2 0-4 0-6 38.337-1.404 66.17-19.07 83.5-53 15.147-37.31 9.814-71.31-16-102-18.526-18.683-41.026-28.3496-67.5-29 0-2 0-4 0-6z" fill="#c418c4"/><path d="m150.5 58.5c26.474.6504 48.974 10.317 67.5 29 25.814 30.69 31.147 64.69 16 102-17.33 33.93-45.163 51.596-83.5 53 0-2 0-4 0-6 42.319-2.412 70.153-23.745 83.5-64 8.493-45.174-7.34-78.6739-47.5-100.5-11.452-5.1238-23.452-7.6238-36-7.5 0-2 0-4 0-6z" fill="#be16be"/><path d="m150.5 64.5c12.548-.1238 24.548 2.3762 36 7.5 40.16 21.8261 55.993 55.326 47.5 100.5-13.347 40.255-41.181 61.588-83.5 64 0-2 0-4 0-6 33.981-.904 58.481-16.57 73.5-47 13.963-36.977 6.463-68.81-22.5-95.5-14.876-11.9035-31.876-17.7369-51-17.5 0-2 0-4 0-6z" fill="#b814b8"/><path d="m150.5 70.5c19.124-.2369 36.124 5.5965 51 17.5 28.963 26.69 36.463 58.523 22.5 95.5-15.019 30.43-39.519 46.096-73.5 47 0-2 0-4 0-6 44.994-4.328 69.661-28.994 74-74-4.339-45.006-29.006-69.6722-74-74 0-2 0-4 0-6z" fill="#b211b2"/><path d="m150.5 76.5c44.994 4.3278 69.661 28.994 74 74-4.339 45.006-29.006 69.672-74 74 0-2 0-4 0-6 41.662-3.662 64.329-26.329 68-68-3.671-41.671-26.338-64.3375-68-68 0-2 0-4 0-6z" fill="#ab0fab"/><path d="m150.5 82.5c41.662 3.6625 64.329 26.329 68 68-3.671 41.671-26.338 64.338-68 68 0-2 0-4 0-6 26.951-1.049 46.117-13.715 57.5-38 11.262-36.576.095-63.743-33.5-81.5-7.68-3.2361-15.68-4.7361-24-4.5 0-2 0-4 0-6z" fill="#a50da5"/><path d="m150.5 88.5c8.32-.2361 16.32 1.2639 24 4.5 33.595 17.757 44.762 44.924 33.5 81.5-11.383 24.285-30.549 36.951-57.5 38 0-1.667 0-3.333 0-5 27.59-1.755 45.757-15.755 54.5-42 5.609-25.836-2.225-46.67-23.5-62.5-9.609-5.7043-19.942-8.8709-31-9.5 0-1.6667 0-3.3333 0-5z" fill="#9f0b9f"/><path d="m150.5 93.5c11.058.6291 21.391 3.7957 31 9.5 21.275 15.83 29.109 36.664 23.5 62.5-8.743 26.245-26.91 40.245-54.5 42 0-2.333 0-4.667 0-7 30.327-2.993 46.993-19.66 50-50-3.007-30.34-19.673-47.007-50-50 0-2.3333 0-4.6667 0-7z" fill="#990899"/><path d="m150.5 100.5c30.327 2.993 46.993 19.66 50 50-3.007 30.34-19.673 47.007-50 50 0-2 0-4 0-6 26.995-2.329 41.662-16.995 44-44-2.338-27.005-17.005-41.671-44-44 0-2 0-4 0-6z" fill="#920692"/><path d="m150.5 106.5c26.995 2.329 41.662 16.995 44 44-2.338 27.005-17.005 41.671-44 44 0-2 0-4 0-6 23.662-1.662 36.329-14.329 38-38-1.671-23.671-14.338-36.338-38-38 0-2 0-4 0-6z" fill="#8c048c"/><path d="m150.5 112.5c23.662 1.662 36.329 14.329 38 38-1.671 23.671-14.338 36.338-38 38 0-1.667 0-3.333 0-5 19.31-2.643 30.31-13.643 33-33-2.69-19.357-13.69-30.357-33-33 0-1.667 0-3.333 0-5z" fill="#860286"/><path d="m150.5 117.5c19.31 2.643 30.31 13.643 33 33-2.69 19.357-13.69 30.357-33 33 0-10.667 0-21.333 0-32 0-.667 0-1.333 0-2 0-10.667 0-21.333 0-32z" fill="#800080"/><path d="m-.5 131.5c48.6447 6.164 97.3114 12.164 146 18-.111.617-.444 1.117-1 1.5-48.3105 6.081-96.6438 11.914-145 17.5 0-12.333 0-24.667 0-37z" fill="#800080" opacity=".998"/><path d="m145.5 149.5h4 1v2c-35.234 38.811-70.2343 77.811-105 117-15.0604-32.454-30.3937-64.788-46-97 0-1 0-2 0-3 48.3562-5.586 96.6895-11.419 145-17.5.556-.383.889-.883 1-1.5z" fill="#d41dd4" opacity=".995"/><path d="m150.5 151.5v32 5 6 6 7 5 6 6 6 6 6 6 6 6 6 6 6 6 6 6 5c-1.333 0-2.667 0-4 0-33.619-11.155-67.2856-22.155-101-33 34.7657-39.189 69.766-78.189 105-117z" fill="#fe00fe" opacity=".991"/></svg>